ffmpeg version 8.0.1-essentials_build-www.gyan.dev Copyright (c) 2000-2025 the FFmpeg developers
  built with gcc 15.2.0 (Rev8, Built by MSYS2 project)
  configuration: --enable-gpl --enable-version3 --enable-static --disable-w32threads --disable-autodetect --enable-fontconfig --enable-iconv --enable-gnutls --enable-libxml2 --enable-gmp --enable-bzlib --enable-lzma --enable-zlib --enable-libsrt --enable-libssh --enable-libzmq --enable-avisynth --enable-sdl2 --enable-libwebp --enable-libx264 --enable-libx265 --enable-libxvid --enable-libaom --enable-libopenjpeg --enable-libvpx --enable-mediafoundation --enable-libass --enable-libfreetype --enable-libfribidi --enable-libharfbuzz --enable-libvidstab --enable-libvmaf --enable-libzimg --enable-amf --enable-cuda-llvm --enable-cuvid --enable-dxva2 --enable-d3d11va --enable-d3d12va --enable-ffnvcodec --enable-libvpl --enable-nvdec --enable-nvenc --enable-vaapi --enable-openal --enable-libgme --enable-libopenmpt --enable-libopencore-amrwb --enable-libmp3lame --enable-libtheora --enable-libvo-amrwbenc --enable-libgsm --enable-libopencore-amrnb --enable-libopus --enable-libspeex --enable-libvorbis --enable-librubberband
  libavutil      60.  8.100 / 60.  8.100
  libavcodec     62. 11.100 / 62. 11.100
  libavformat    62.  3.100 / 62.  3.100
  libavdevice    62.  1.100 / 62.  1.100
  libavfilter    11.  4.100 / 11.  4.100
  libswscale      9.  1.100 /  9.  1.100
  libswresample   6.  1.100 /  6.  1.100
Input #0, dshow, from 'video=Logitech BRIO':
  Duration: N/A, start: 10715.098609, bitrate: N/A
  Stream #0:0: Video: mjpeg (Baseline) (MJPG / 0x47504A4D), yuvj422p(pc, bt470bg/bt709/unknown), 640x480, 30 fps, 30 tbr, 10000k tbn, start 10715.098609
Stream mapping:
  Stream #0:0 -> #0:0 (mjpeg (native) -> h264 (libx264))
Press [q] to stop, [?] for help
[libx264 @ 000002c8b6584540] using cpu capabilities: MMX2 SSE2Fast SSSE3 SSE4.2 AVX FMA3 BMI2 AVX2
[libx264 @ 000002c8b6584540] profile High 4:2:2, level 3.0, 4:2:2, 8-bit
Output #0, mpegts, to 'udp://127.0.0.1:12345':
  Metadata:
    encoder         : Lavf62.3.100
  Stream #0:0: Video: h264, yuvj422p(pc, bt470bg/bt709/unknown, progressive), 640x480, q=2-31, 30 fps, 90k tbn
    Metadata:
      encoder         : Lavc62.11.100 libx264
    Side data:
      cpb: bitrate max/min/avg: 0/0/0 buffer size: 0 vbv_delay: N/A
frame=   15 fps=0.0 q=22.0 size=     132KiB time=00:00:00.50 bitrate=2156.7kbits/s speed=0.992x elapsed=0:00:00.50    frame=   30 fps= 29 q=22.0 size=     249KiB time=00:00:00.99 bitrate=2039.4kbits/s speed=0.979x elapsed=0:00:01.02    frame=   46 fps= 30 q=22.0 size=     354KiB time=00:00:01.53 bitrate=1891.1kbits/s speed=0.998x elapsed=0:00:01.53    frame=   62 fps= 30 q=23.0 size=     470KiB time=00:00:02.06 bitrate=1863.7kbits/s speed=1.01x elapsed=0:00:02.05    frame=   77 fps= 30 q=24.0 size=     593KiB time=00:00:02.56 bitrate=1893.9kbits/s speed=   1x elapsed=0:00:02.56    frame=   92 fps= 30 q=23.0 size=     727KiB time=00:00:03.06 bitrate=1941.1kbits/s speed=0.995x elapsed=0:00:03.08    frame=  108 fps= 30 q=24.0 size=     859KiB time=00:00:03.59 bitrate=1953.9kbits/s speed=   1x elapsed=0:00:03.59    frame=  124 fps= 30 q=23.0 size=     999KiB time=00:00:04.13 bitrate=1979.8kbits/s speed=   1x elapsed=0:00:04.11    frame=  139 fps= 30 q=22.0 size=    1135KiB time=00:00:04.63 bitrate=2006.1kbits/s speed=   1x elapsed=0:00:04.63    frame=  154 fps= 30 q=22.0 size=    1235KiB time=00:00:05.13 bitrate=1970.9kbits/s speed=0.998x elapsed=0:00:05.14    frame=  170 fps= 30 q=23.0 size=    1352KiB time=00:00:05.66 bitrate=1955.0kbits/s speed=   1x elapsed=0:00:05.66    frame=  185 fps= 30 q=24.0 size=    1466KiB time=00:00:06.16 bitrate=1947.0kbits/s speed=0.998x elapsed=0:00:06.17    frame=  201 fps= 30 q=23.0 size=    1598KiB time=00:00:06.69 bitrate=1953.9kbits/s speed=   1x elapsed=0:00:06.69    frame=  216 fps= 30 q=22.0 size=    1698KiB time=00:00:07.19 bitrate=1932.0kbits/s speed=0.999x elapsed=0:00:07.20    frame=  232 fps= 30 q=22.0 size=    1779KiB time=00:00:07.73 bitrate=1884.9kbits/s speed=   1x elapsed=0:00:07.72    frame=  247 fps= 30 q=21.0 size=    1852KiB time=00:00:08.23 bitrate=1843.2kbits/s speed=0.999x elapsed=0:00:08.23    frame=  263 fps= 30 q=21.0 size=    1949KiB time=00:00:08.76 bitrate=1820.9kbits/s speed=   1x elapsed=0:00:08.75    frame=  278 fps= 30 q=22.0 size=    2026KiB time=00:00:09.26 bitrate=1790.8kbits/s speed=   1x elapsed=0:00:09.27    frame=  294 fps= 30 q=21.0 size=    2109KiB time=00:00:09.79 bitrate=1763.4kbits/s speed=   1x elapsed=0:00:09.78    frame=  309 fps= 30 q=21.0 size=    2186KiB time=00:00:10.29 bitrate=1738.9kbits/s speed=   1x elapsed=0:00:10.30    frame=  325 fps= 30 q=21.0 size=    2275KiB time=00:00:10.83 bitrate=1720.1kbits/s speed=   1x elapsed=0:00:10.81    frame=  340 fps= 30 q=21.0 size=    2351KiB time=00:00:11.33 bitrate=1699.4kbits/s speed=   1x elapsed=0:00:11.33    frame=  355 fps= 30 q=21.0 size=    2421KiB time=00:00:11.83 bitrate=1676.3kbits/s speed=0.999x elapsed=0:00:11.84    frame=  371 fps= 30 q=21.0 size=    2493KiB time=00:00:12.36 bitrate=1651.7kbits/s speed=   1x elapsed=0:00:12.36    frame=  387 fps= 30 q=21.0 size=    2572KiB time=00:00:12.89 bitrate=1633.2kbits/s speed=   1x elapsed=0:00:12.87    frame=  402 fps= 30 q=21.0 size=    2644KiB time=00:00:13.39 bitrate=1616.6kbits/s speed=   1x elapsed=0:00:13.39    frame=  417 fps= 30 q=21.0 size=    2709KiB time=00:00:13.89 bitrate=1596.8kbits/s speed=0.999x elapsed=0:00:13.91    frame=  433 fps= 30 q=21.0 size=    2775KiB time=00:00:14.43 bitrate=1575.0kbits/s speed=   1x elapsed=0:00:14.42    frame=  448 fps= 30 q=20.0 size=    2831KiB time=00:00:14.93 bitrate=1553.1kbits/s speed=0.999x elapsed=0:00:14.94    frame=  464 fps= 30 q=20.0 size=    2891KiB time=00:00:15.46 bitrate=1531.3kbits/s speed=   1x elapsed=0:00:15.45    frame=  479 fps= 30 q=21.0 size=    2959KiB time=00:00:15.96 bitrate=1518.2kbits/s speed=   1x elapsed=0:00:15.97    frame=  495 fps= 30 q=20.0 size=    3032KiB time=00:00:16.49 bitrate=1505.2kbits/s speed=   1x elapsed=0:00:16.48    frame=  510 fps= 30 q=20.0 size=    3117KiB time=00:00:16.99 bitrate=1502.2kbits/s speed=   1x elapsed=0:00:17.00    frame=  526 fps= 30 q=23.0 size=    3193KiB time=00:00:17.53 bitrate=1492.0kbits/s speed=   1x elapsed=0:00:17.52    frame=  541 fps= 30 q=23.0 size=    3310KiB time=00:00:18.03 bitrate=1503.6kbits/s speed=   1x elapsed=0:00:18.03    frame=  556 fps= 30 q=22.0 size=    3431KiB time=00:00:18.53 bitrate=1516.5kbits/s speed=0.999x elapsed=0:00:18.55    frame=  572 fps= 30 q=22.0 size=    3541KiB time=00:00:19.06 bitrate=1521.2kbits/s speed=   1x elapsed=0:00:19.06    frame=  588 fps= 30 q=22.0 size=    3648KiB time=00:00:19.59 bitrate=1524.8kbits/s speed=   1x elapsed=0:00:19.58    frame=  603 fps= 30 q=24.0 size=    3762KiB time=00:00:20.09 bitrate=1533.2kbits/s speed=   1x elapsed=0:00:20.09    frame=  619 fps= 30 q=22.0 size=    3889KiB time=00:00:20.63 bitrate=1544.1kbits/s speed=   1x elapsed=0:00:20.61    frame=  634 fps= 30 q=22.0 size=    3987KiB time=00:00:21.13 bitrate=1545.6kbits/s speed=   1x elapsed=0:00:21.12    frame=  650 fps= 30 q=23.0 size=    4082KiB time=00:00:21.66 bitrate=1543.5kbits/s speed=   1x elapsed=0:00:21.64    frame=  665 fps= 30 q=22.0 size=    4177KiB time=00:00:22.16 bitrate=1543.9kbits/s speed=   1x elapsed=0:00:22.16    frame=  680 fps= 30 q=21.0 size=    4259KiB time=00:00:22.66 bitrate=1539.3kbits/s speed=   1x elapsed=0:00:22.67    frame=  696 fps= 30 q=22.0 size=    4352KiB time=00:00:23.19 bitrate=1536.8kbits/s speed=   1x elapsed=0:00:23.19    frame=  712 fps= 30 q=24.0 size=    4455KiB time=00:00:23.73 bitrate=1537.8kbits/s speed=   1x elapsed=0:00:23.70    frame=  727 fps= 30 q=23.0 size=    4575KiB time=00:00:24.23 bitrate=1546.7kbits/s speed=   1x elapsed=0:00:24.22    frame=  742 fps= 30 q=22.0 size=    4697KiB time=00:00:24.73 bitrate=1555.7kbits/s speed=   1x elapsed=0:00:24.73    frame=  758 fps= 30 q=22.0 size=    4823KiB time=00:00:25.26 bitrate=1563.8kbits/s speed=   1x elapsed=0:00:25.25    frame=  773 fps= 30 q=23.0 size=    4911KiB time=00:00:25.76 bitrate=1561.5kbits/s speed=   1x elapsed=0:00:25.77    frame=  788 fps= 30 q=23.0 size=    5023KiB time=00:00:26.26 bitrate=1566.5kbits/s speed=0.999x elapsed=0:00:26.28    frame=  804 fps= 30 q=23.0 size=    5142KiB time=00:00:26.79 bitrate=1571.6kbits/s speed=   1x elapsed=0:00:26.80    frame=  820 fps= 30 q=22.0 size=    5258KiB time=00:00:27.33 bitrate=1576.0kbits/s speed=   1x elapsed=0:00:27.31    frame=  835 fps= 30 q=23.0 size=    5367KiB time=00:00:27.83 bitrate=1579.6kbits/s speed=   1x elapsed=0:00:27.83    frame=  851 fps= 30 q=22.0 size=    5483KiB time=00:00:28.36 bitrate=1583.4kbits/s speed=   1x elapsed=0:00:28.34    frame=  866 fps= 30 q=22.0 size=    5572KiB time=00:00:28.86 bitrate=1581.2kbits/s speed=   1x elapsed=0:00:28.86    frame=  882 fps= 30 q=22.0 size=    5667KiB time=00:00:29.39 bitrate=1579.0kbits/s speed=   1x elapsed=0:00:29.38    frame=  897 fps= 30 q=22.0 size=    5749KiB time=00:00:29.89 bitrate=1575.1kbits/s speed=   1x elapsed=0:00:29.89    frame=  912 fps= 30 q=21.0 size=    5821KiB time=00:00:30.39 bitrate=1568.7kbits/s speed=   1x elapsed=0:00:30.41    frame=  928 fps= 30 q=22.0 size=    5899KiB time=00:00:30.93 bitrate=1562.3kbits/s speed=   1x elapsed=0:00:30.92    frame=  943 fps= 30 q=21.0 size=    5970KiB time=00:00:31.43 bitrate=1555.8kbits/s speed=   1x elapsed=0:00:31.44    frame=  959 fps= 30 q=21.0 size=    6043KiB time=00:00:31.96 bitrate=1548.6kbits/s speed=   1x elapsed=0:00:31.95    frame=  974 fps= 30 q=21.0 size=    6117KiB time=00:00:32.46 bitrate=1543.4kbits/s speed=   1x elapsed=0:00:32.47    frame=  990 fps= 30 q=20.0 size=    6190KiB time=00:00:32.99 bitrate=1536.7kbits/s speed=   1x elapsed=0:00:32.98    frame= 1005 fps= 30 q=21.0 size=    6280KiB time=00:00:33.49 bitrate=1535.7kbits/s speed=   1x elapsed=0:00:33.50    frame= 1021 fps= 30 q=20.0 size=    6339KiB time=00:00:34.03 bitrate=1526.0kbits/s speed=   1x elapsed=0:00:34.02    frame= 1036 fps= 30 q=21.0 size=    6400KiB time=00:00:34.53 bitrate=1518.3kbits/s speed=   1x elapsed=0:00:34.53    frame= 1052 fps= 30 q=23.0 size=    6504KiB time=00:00:35.06 bitrate=1519.4kbits/s speed=   1x elapsed=0:00:35.05    frame= 1067 fps= 30 q=23.0 size=    6608KiB time=00:00:35.56 bitrate=1521.9kbits/s speed=   1x elapsed=0:00:35.56    frame= 1083 fps= 30 q=22.0 size=    6716KiB time=00:00:36.09 bitrate=1524.1kbits/s speed=   1x elapsed=0:00:36.08    frame= 1098 fps= 30 q=23.0 size=    6809KiB time=00:00:36.59 bitrate=1524.1kbits/s speed=   1x elapsed=0:00:36.59    frame= 1113 fps= 30 q=22.0 size=    6910KiB time=00:00:37.09 bitrate=1525.7kbits/s speed=   1x elapsed=0:00:37.11    frame= 1129 fps= 30 q=21.0 size=    7006KiB time=00:00:37.63 bitrate=1525.2kbits/s speed=   1x elapsed=0:00:37.62    frame= 1144 fps= 30 q=22.0 size=    7095KiB time=00:00:38.13 bitrate=1524.1kbits/s speed=   1x elapsed=0:00:38.14    frame= 1160 fps= 30 q=23.0 size=    7190KiB time=00:00:38.66 bitrate=1523.3kbits/s speed=   1x elapsed=0:00:38.66    frame= 1176 fps= 30 q=22.0 size=    7294KiB time=00:00:39.19 bitrate=1524.3kbits/s speed=   1x elapsed=0:00:39.17    frame= 1191 fps= 30 q=22.0 size=    7382KiB time=00:00:39.69 bitrate=1523.2kbits/s speed=   1x elapsed=0:00:39.69    frame= 1206 fps= 30 q=22.0 size=    7484KiB time=00:00:40.19 bitrate=1525.0kbits/s speed=   1x elapsed=0:00:40.20    frame= 1222 fps= 30 q=23.0 size=    7601KiB time=00:00:40.73 bitrate=1528.7kbits/s speed=   1x elapsed=0:00:40.72    frame= 1237 fps= 30 q=22.0 size=    7700KiB time=00:00:41.23 bitrate=1529.8kbits/s speed=   1x elapsed=0:00:41.23    frame= 1252 fps= 30 q=25.0 size=    7831KiB time=00:00:41.73 bitrate=1537.2kbits/s speed=0.999x elapsed=0:00:41.75    frame= 1268 fps= 30 q=22.0 size=    7919KiB time=00:00:42.26 bitrate=1534.8kbits/s speed=   1x elapsed=0:00:42.27    frame= 1284 fps= 30 q=23.0 size=    8044KiB time=00:00:42.79 bitrate=1539.7kbits/s speed=   1x elapsed=0:00:42.78    frame= 1300 fps= 30 q=22.0 size=    8173KiB time=00:00:43.33 bitrate=1545.2kbits/s speed=   1x elapsed=0:00:43.30    frame= 1315 fps= 30 q=22.0 size=    8277KiB time=00:00:43.83 bitrate=1546.9kbits/s speed=   1x elapsed=0:00:43.81    frame= 1330 fps= 30 q=21.0 size=    8364KiB time=00:00:44.33 bitrate=1545.6kbits/s speed=   1x elapsed=0:00:44.33    frame= 1345 fps= 30 q=20.0 size=    8435KiB time=00:00:44.83 bitrate=1541.2kbits/s speed=   1x elapsed=0:00:44.84    frame= 1361 fps= 30 q=20.0 size=    8513KiB time=00:00:45.36 bitrate=1537.2kbits/s speed=   1x elapsed=0:00:45.36    frame= 1376 fps= 30 q=20.0 size=    8577KiB time=00:00:45.86 bitrate=1531.9kbits/s speed=   1x elapsed=0:00:45.87    frame= 1392 fps= 30 q=20.0 size=    8656KiB time=00:00:46.39 bitrate=1528.2kbits/s speed=   1x elapsed=0:00:46.39    frame= 1408 fps= 30 q=20.0 size=    8729KiB time=00:00:46.93 bitrate=1523.6kbits/s speed=   1x elapsed=0:00:46.91    frame= 1423 fps= 30 q=20.0 size=    8792KiB time=00:00:47.43 bitrate=1518.5kbits/s speed=   1x elapsed=0:00:47.42    frame= 1438 fps= 30 q=20.0 size=    8853KiB time=00:00:47.93 bitrate=1513.0kbits/s speed=   1x elapsed=0:00:47.94    frame= 1454 fps= 30 q=20.0 size=    8918KiB time=00:00:48.46 bitrate=1507.3kbits/s speed=   1x elapsed=0:00:48.45    frame= 1469 fps= 30 q=22.0 size=    9000KiB time=00:00:48.96 bitrate=1505.7kbits/s speed=   1x elapsed=0:00:48.97    frame= 1485 fps= 30 q=22.0 size=    9102KiB time=00:00:49.49 bitrate=1506.3kbits/s speed=   1x elapsed=0:00:49.48    frame= 1500 fps= 30 q=20.0 size=    9189KiB time=00:00:49.99 bitrate=1505.6kbits/s speed=   1x elapsed=0:00:50.00    frame= 1516 fps= 30 q=21.0 size=    9337KiB time=00:00:50.53 bitrate=1513.7kbits/s speed=   1x elapsed=0:00:50.52    frame= 1531 fps= 30 q=20.0 size=    9425KiB time=00:00:51.03 bitrate=1512.9kbits/s speed=   1x elapsed=0:00:51.03    frame= 1547 fps= 30 q=20.0 size=    9508KiB time=00:00:51.56 bitrate=1510.4kbits/s speed=   1x elapsed=0:00:51.55    frame= 1562 fps= 30 q=22.0 size=    9586KiB time=00:00:52.06 bitrate=1508.3kbits/s speed=   1x elapsed=0:00:52.06    frame= 1577 fps= 30 q=21.0 size=    9677KiB time=00:00:52.56 bitrate=1508.1kbits/s speed=   1x elapsed=0:00:52.58    frame= 1593 fps= 30 q=21.0 size=    9785KiB time=00:00:53.09 bitrate=1509.6kbits/s speed=   1x elapsed=0:00:53.09    frame= 1607 fps= 30 q=21.0 size=    9869KiB time=00:00:53.59 bitrate=1508.3kbits/s speed=   1x elapsed=0:00:53.61    frame= 1623 fps= 30 q=20.0 size=    9955KiB time=00:00:54.13 bitrate=1506.5kbits/s speed=   1x elapsed=0:00:54.12    frame= 1638 fps= 30 q=21.0 size=   10031KiB time=00:00:54.63 bitrate=1504.1kbits/s speed=   1x elapsed=0:00:54.64    frame= 1654 fps= 30 q=21.0 size=   10115KiB time=00:00:55.16 bitrate=1502.0kbits/s speed=   1x elapsed=0:00:55.16    frame= 1670 fps= 30 q=22.0 size=   10204KiB time=00:00:55.69 bitrate=1500.7kbits/s speed=   1x elapsed=0:00:55.67    frame= 1685 fps= 30 q=20.0 size=   10298KiB time=00:00:56.19 bitrate=1501.0kbits/s speed=   1x elapsed=0:00:56.19    frame= 1700 fps= 30 q=23.0 size=   10398KiB time=00:00:56.69 bitrate=1502.3kbits/s speed=   1x elapsed=0:00:56.70    frame= 1716 fps= 30 q=22.0 size=   10497KiB time=00:00:57.23 bitrate=1502.4kbits/s speed=   1x elapsed=0:00:57.22    frame= 1731 fps= 30 q=22.0 size=   10592KiB time=00:00:57.73 bitrate=1503.0kbits/s speed=   1x elapsed=0:00:57.73    frame= 1747 fps= 30 q=22.0 size=   10705KiB time=00:00:58.26 bitrate=1505.0kbits/s speed=   1x elapsed=0:00:58.25    frame= 1762 fps= 30 q=22.0 size=   10824KiB time=00:00:58.76 bitrate=1508.8kbits/s speed=   1x elapsed=0:00:58.77    frame= 1778 fps= 30 q=22.0 size=   10933KiB time=00:00:59.29 bitrate=1510.4kbits/s speed=   1x elapsed=0:00:59.28    frame= 1793 fps= 30 q=21.0 size=   11031KiB time=00:00:59.79 bitrate=1511.1kbits/s speed=   1x elapsed=0:00:59.80    frame= 1808 fps= 30 q=21.0 size=   11100KiB time=00:01:00.29 bitrate=1507.9kbits/s speed=   1x elapsed=0:01:00.31    